<mxfile host="app.diagrams.net" modified="2022-11-26T18:36:10.732Z" agent="5.0 (Macintosh)" etag="gHPBC7friy19MzxoV4o_" version="20.6.0" type="github">
  <diagram name="Page-1" id="b5b7bab2-c9e2-2cf4-8b2a-24fd1a2a6d21">
    <mxGraphModel dx="2732" dy="1538" grid="1" gridSize="10" guides="1" tooltips="1" connect="1" arrows="1" fold="1" page="1" pageScale="1" pageWidth="827" pageHeight="1169" background="none" math="0" shadow="0">
      <root>
        <mxCell id="0" />
        <mxCell id="1" parent="0" />
        <mxCell id="9ONtMfQW5I2U-Mgj0Imk-3" value="" style="rounded=0;whiteSpace=wrap;html=1;" vertex="1" parent="1">
          <mxGeometry x="350" y="650" width="760" height="370" as="geometry" />
        </mxCell>
        <mxCell id="9ONtMfQW5I2U-Mgj0Imk-4" value="Recorded value" style="rounded=0;whiteSpace=wrap;html=1;" vertex="1" parent="1">
          <mxGeometry x="800" y="680" width="120" height="60" as="geometry" />
        </mxCell>
        <mxCell id="9ONtMfQW5I2U-Mgj0Imk-7" value="" style="rounded=0;whiteSpace=wrap;html=1;" vertex="1" parent="1">
          <mxGeometry x="350" y="210" width="760" height="370" as="geometry" />
        </mxCell>
        <mxCell id="9ONtMfQW5I2U-Mgj0Imk-29" style="edgeStyle=orthogonalEdgeStyle;rounded=0;orthogonalLoop=1;jettySize=auto;html=1;startArrow=none;" edge="1" parent="1" source="9ONtMfQW5I2U-Mgj0Imk-9" target="9ONtMfQW5I2U-Mgj0Imk-4">
          <mxGeometry relative="1" as="geometry" />
        </mxCell>
        <mxCell id="9ONtMfQW5I2U-Mgj0Imk-8" value="Stopwatch" style="rounded=0;whiteSpace=wrap;html=1;" vertex="1" parent="1">
          <mxGeometry x="800" y="350" width="120" height="60" as="geometry" />
        </mxCell>
        <mxCell id="9ONtMfQW5I2U-Mgj0Imk-28" style="edgeStyle=orthogonalEdgeStyle;rounded=0;orthogonalLoop=1;jettySize=auto;html=1;" edge="1" parent="1" source="9ONtMfQW5I2U-Mgj0Imk-9" target="9ONtMfQW5I2U-Mgj0Imk-4">
          <mxGeometry relative="1" as="geometry" />
        </mxCell>
        <mxCell id="9ONtMfQW5I2U-Mgj0Imk-27" style="edgeStyle=orthogonalEdgeStyle;rounded=0;orthogonalLoop=1;jettySize=auto;html=1;" edge="1" parent="1" source="9ONtMfQW5I2U-Mgj0Imk-10" target="9ONtMfQW5I2U-Mgj0Imk-4">
          <mxGeometry relative="1" as="geometry" />
        </mxCell>
        <mxCell id="9ONtMfQW5I2U-Mgj0Imk-10" value="Tally Counter" style="rounded=0;whiteSpace=wrap;html=1;" vertex="1" parent="1">
          <mxGeometry x="800" y="510" width="120" height="60" as="geometry" />
        </mxCell>
        <mxCell id="9ONtMfQW5I2U-Mgj0Imk-11" value="Habit/value" style="rounded=0;whiteSpace=wrap;html=1;" vertex="1" parent="1">
          <mxGeometry x="380" y="680" width="120" height="60" as="geometry" />
        </mxCell>
        <mxCell id="9ONtMfQW5I2U-Mgj0Imk-12" value="Database" style="text;html=1;strokeColor=none;fillColor=none;align=center;verticalAlign=middle;whiteSpace=wrap;rounded=0;" vertex="1" parent="1">
          <mxGeometry x="354" y="650" width="60" height="30" as="geometry" />
        </mxCell>
        <mxCell id="9ONtMfQW5I2U-Mgj0Imk-13" value="Data Entry" style="text;html=1;strokeColor=none;fillColor=none;align=center;verticalAlign=middle;whiteSpace=wrap;rounded=0;" vertex="1" parent="1">
          <mxGeometry x="360" y="210" width="60" height="30" as="geometry" />
        </mxCell>
        <mxCell id="9ONtMfQW5I2U-Mgj0Imk-18" value="" style="rounded=0;whiteSpace=wrap;html=1;" vertex="1" parent="1">
          <mxGeometry x="-190" y="210" width="470" height="370" as="geometry" />
        </mxCell>
        <mxCell id="9ONtMfQW5I2U-Mgj0Imk-19" value="Habit/value" style="rounded=0;whiteSpace=wrap;html=1;" vertex="1" parent="1">
          <mxGeometry x="-156" y="240" width="120" height="60" as="geometry" />
        </mxCell>
        <mxCell id="9ONtMfQW5I2U-Mgj0Imk-20" value="Date&amp;amp;time" style="rounded=0;whiteSpace=wrap;html=1;" vertex="1" parent="1">
          <mxGeometry x="-10" y="240" width="120" height="60" as="geometry" />
        </mxCell>
        <mxCell id="9ONtMfQW5I2U-Mgj0Imk-21" value="&lt;div&gt;Tracked value&lt;/div&gt;" style="rounded=0;whiteSpace=wrap;html=1;" vertex="1" parent="1">
          <mxGeometry x="130" y="240" width="120" height="60" as="geometry" />
        </mxCell>
        <mxCell id="9ONtMfQW5I2U-Mgj0Imk-22" value="Data Visualization" style="text;html=1;strokeColor=none;fillColor=none;align=center;verticalAlign=middle;whiteSpace=wrap;rounded=0;" vertex="1" parent="1">
          <mxGeometry x="-200" y="210" width="160" height="30" as="geometry" />
        </mxCell>
        <mxCell id="9ONtMfQW5I2U-Mgj0Imk-23" value="Correlations" style="rounded=0;whiteSpace=wrap;html=1;" vertex="1" parent="1">
          <mxGeometry x="-156" y="330" width="120" height="60" as="geometry" />
        </mxCell>
        <mxCell id="9ONtMfQW5I2U-Mgj0Imk-26" style="edgeStyle=orthogonalEdgeStyle;rounded=0;orthogonalLoop=1;jettySize=auto;html=1;" edge="1" parent="1" source="9ONtMfQW5I2U-Mgj0Imk-25" target="9ONtMfQW5I2U-Mgj0Imk-11">
          <mxGeometry relative="1" as="geometry" />
        </mxCell>
        <mxCell id="9ONtMfQW5I2U-Mgj0Imk-25" value="&lt;div&gt;Habit / Value&lt;/div&gt;" style="rounded=0;whiteSpace=wrap;html=1;" vertex="1" parent="1">
          <mxGeometry x="380" y="350" width="120" height="60" as="geometry" />
        </mxCell>
        <mxCell id="9ONtMfQW5I2U-Mgj0Imk-9" value="Timer" style="rounded=0;whiteSpace=wrap;html=1;" vertex="1" parent="1">
          <mxGeometry x="800" y="430" width="120" height="60" as="geometry" />
        </mxCell>
        <mxCell id="9ONtMfQW5I2U-Mgj0Imk-30" value="" style="edgeStyle=orthogonalEdgeStyle;rounded=0;orthogonalLoop=1;jettySize=auto;html=1;endArrow=none;" edge="1" parent="1" source="9ONtMfQW5I2U-Mgj0Imk-8" target="9ONtMfQW5I2U-Mgj0Imk-9">
          <mxGeometry relative="1" as="geometry">
            <mxPoint x="730" y="350" as="sourcePoint" />
            <mxPoint x="730" y="680" as="targetPoint" />
          </mxGeometry>
        </mxCell>
        <mxCell id="9ONtMfQW5I2U-Mgj0Imk-39" style="edgeStyle=orthogonalEdgeStyle;rounded=0;orthogonalLoop=1;jettySize=auto;html=1;" edge="1" parent="1" source="9ONtMfQW5I2U-Mgj0Imk-31" target="9ONtMfQW5I2U-Mgj0Imk-36">
          <mxGeometry relative="1" as="geometry" />
        </mxCell>
        <mxCell id="9ONtMfQW5I2U-Mgj0Imk-31" value="Notes" style="rounded=0;whiteSpace=wrap;html=1;" vertex="1" parent="1">
          <mxGeometry x="525" y="350" width="120" height="60" as="geometry" />
        </mxCell>
        <mxCell id="9ONtMfQW5I2U-Mgj0Imk-40" style="edgeStyle=orthogonalEdgeStyle;rounded=0;orthogonalLoop=1;jettySize=auto;html=1;" edge="1" parent="1" source="9ONtMfQW5I2U-Mgj0Imk-35" target="9ONtMfQW5I2U-Mgj0Imk-37">
          <mxGeometry relative="1" as="geometry" />
        </mxCell>
        <mxCell id="9ONtMfQW5I2U-Mgj0Imk-35" value="&lt;div&gt;Tag&lt;/div&gt;" style="rounded=0;whiteSpace=wrap;html=1;" vertex="1" parent="1">
          <mxGeometry x="660" y="350" width="120" height="60" as="geometry" />
        </mxCell>
        <mxCell id="9ONtMfQW5I2U-Mgj0Imk-36" value="Notes" style="rounded=0;whiteSpace=wrap;html=1;" vertex="1" parent="1">
          <mxGeometry x="525" y="680" width="120" height="60" as="geometry" />
        </mxCell>
        <mxCell id="9ONtMfQW5I2U-Mgj0Imk-37" value="&lt;div&gt;Tag&lt;/div&gt;" style="rounded=0;whiteSpace=wrap;html=1;" vertex="1" parent="1">
          <mxGeometry x="660" y="680" width="120" height="60" as="geometry" />
        </mxCell>
        <mxCell id="9ONtMfQW5I2U-Mgj0Imk-41" value="&lt;div align=&quot;left&quot;&gt;&lt;br&gt;&lt;/div&gt;" style="rounded=0;whiteSpace=wrap;html=1;align=left;" vertex="1" parent="1">
          <mxGeometry x="1180" y="210" width="380" height="380" as="geometry" />
        </mxCell>
        <mxCell id="9ONtMfQW5I2U-Mgj0Imk-42" value="&lt;div&gt;Frontend&lt;/div&gt;" style="text;html=1;strokeColor=none;fillColor=none;align=center;verticalAlign=middle;whiteSpace=wrap;rounded=0;" vertex="1" parent="1">
          <mxGeometry x="1190" y="220" width="60" height="30" as="geometry" />
        </mxCell>
        <mxCell id="9ONtMfQW5I2U-Mgj0Imk-50" style="edgeStyle=orthogonalEdgeStyle;rounded=0;orthogonalLoop=1;jettySize=auto;html=1;" edge="1" parent="1" source="9ONtMfQW5I2U-Mgj0Imk-43" target="9ONtMfQW5I2U-Mgj0Imk-44">
          <mxGeometry relative="1" as="geometry" />
        </mxCell>
        <mxCell id="9ONtMfQW5I2U-Mgj0Imk-43" value="&lt;div&gt;Navigation menu&lt;/div&gt;" style="rounded=0;whiteSpace=wrap;html=1;" vertex="1" parent="1">
          <mxGeometry x="1310" y="470" width="120" height="60" as="geometry" />
        </mxCell>
        <mxCell id="9ONtMfQW5I2U-Mgj0Imk-44" value="" style="rounded=0;whiteSpace=wrap;html=1;" vertex="1" parent="1">
          <mxGeometry x="1180" y="650" width="380" height="370" as="geometry" />
        </mxCell>
        <mxCell id="9ONtMfQW5I2U-Mgj0Imk-45" value="Navigation" style="text;html=1;strokeColor=none;fillColor=none;align=center;verticalAlign=middle;whiteSpace=wrap;rounded=0;" vertex="1" parent="1">
          <mxGeometry x="1190" y="660" width="60" height="30" as="geometry" />
        </mxCell>
        <mxCell id="9ONtMfQW5I2U-Mgj0Imk-46" value="Data Entry" style="rounded=0;whiteSpace=wrap;html=1;" vertex="1" parent="1">
          <mxGeometry x="1200" y="710" width="120" height="60" as="geometry" />
        </mxCell>
        <mxCell id="9ONtMfQW5I2U-Mgj0Imk-47" value="View or delete data entry from database" style="rounded=0;whiteSpace=wrap;html=1;" vertex="1" parent="1">
          <mxGeometry x="1350" y="710" width="120" height="60" as="geometry" />
        </mxCell>
        <mxCell id="9ONtMfQW5I2U-Mgj0Imk-48" value="View data visualizations" style="rounded=0;whiteSpace=wrap;html=1;" vertex="1" parent="1">
          <mxGeometry x="1200" y="800" width="120" height="60" as="geometry" />
        </mxCell>
        <mxCell id="9ONtMfQW5I2U-Mgj0Imk-49" value="Documentation" style="rounded=0;whiteSpace=wrap;html=1;" vertex="1" parent="1">
          <mxGeometry x="1350" y="800" width="120" height="60" as="geometry" />
        </mxCell>
        <mxCell id="9ONtMfQW5I2U-Mgj0Imk-51" value="&lt;div align=&quot;left&quot;&gt;&lt;br&gt;&lt;/div&gt;" style="rounded=0;whiteSpace=wrap;html=1;align=left;" vertex="1" parent="1">
          <mxGeometry x="-180" y="645" width="380" height="380" as="geometry" />
        </mxCell>
        <mxCell id="9ONtMfQW5I2U-Mgj0Imk-52" value="&lt;div&gt;Backend&lt;/div&gt;" style="text;html=1;strokeColor=none;fillColor=none;align=center;verticalAlign=middle;whiteSpace=wrap;rounded=0;" vertex="1" parent="1">
          <mxGeometry x="-170" y="650" width="60" height="30" as="geometry" />
        </mxCell>
        <mxCell id="9ONtMfQW5I2U-Mgj0Imk-53" value="Self host" style="rounded=0;whiteSpace=wrap;html=1;" vertex="1" parent="1">
          <mxGeometry x="-146" y="770" width="120" height="60" as="geometry" />
        </mxCell>
        <mxCell id="9ONtMfQW5I2U-Mgj0Imk-54" value="Supabase" style="rounded=0;whiteSpace=wrap;html=1;" vertex="1" parent="1">
          <mxGeometry y="770" width="120" height="60" as="geometry" />
        </mxCell>
      </root>
    </mxGraphModel>
  </diagram>
</mxfile>
